<svg id="Layer_1" data-name="Layer 1" xmlns="http://www.w3.org/2000/svg" viewBox="0 0 128.51 151.71"><defs><style>.cls-1{fill:#231f20;fill-rule:evenodd;}</style></defs><path class="cls-1" d="M12.69,79.34l-.09,44a12.89,12.89,0,0,0,12.88,12.91h77.26a12.89,12.89,0,0,0,12.88-12.88v-44a19.33,19.33,0,0,0,12.89-18.22c0-5-7.16-25.86-10.95-36.38A12.88,12.88,0,0,0,105.38,16H23.18A12.87,12.87,0,0,0,10.9,25L.8,57A17.13,17.13,0,0,0,2.37,70.86h0A19.31,19.31,0,0,0,12.69,79.34Zm94.35,1a19.31,19.31,0,0,1-12.88-7.07,19.29,19.29,0,0,1-30,0,19.29,19.29,0,0,1-30,0,19.34,19.34,0,0,1-12.78,7.06l-.09,43.05a4.28,4.28,0,0,0,4.29,4.3H46.94V110.46A12.87,12.87,0,0,1,59.82,97.58H68.4a12.87,12.87,0,0,1,12.88,12.88v17.17h21.46a4.3,4.3,0,0,0,4.3-4.29ZM72.7,127.63H55.52V110.46a4.3,4.3,0,0,1,4.3-4.29H68.4a4.3,4.3,0,0,1,4.3,4.29Zm-53.62-100a4.32,4.32,0,0,1,4.1-3h82.2a4.28,4.28,0,0,1,4.06,2.92l0,0c3.51,9.74,10.46,29,10.46,33.54a10.73,10.73,0,0,1-21.46,0c0-6.5-8.59-6.5-8.59,0a10.74,10.74,0,0,1-21.47,0c0-6.43-8.58-6.43-8.58,0a10.74,10.74,0,0,1-21.47,0c0-6.43-8.59-6.43-8.59,0a10.73,10.73,0,0,1-20,5.42A8.61,8.61,0,0,1,9,59.57Z"/></svg>